/* XPM */ 
static const unsigned char * close_xpm[] = {
"24 24 6 1",
" 	c None",
"!	c black",
"#	c #FF9090",
"$	c #C0C0C0",
"%	c #FF0000",
"&	c white",
"                        ",
" ######################$",
" #%%%%%%%%%%%%%%%%%%%%#$",
" #%%%%%%%%%%%%%%%%%%%%#$",
" #%%%%%%%%%%%%%%%%%%%%#$",
" #%%%%&&%%%%%%%%&&%%%%#$",
" #%%%&&&&%%%%%%&&&&%%%#$",
" #%%%%&&&&%%%%&&&&%%%%#$",
" #%%%%%&&&&%%&&&&%%%%%#$",
" #%%%%%%&&&&&&&&%%%%%%#$",
" #%%%%%%%&&&&&&%%%%%%%#$",
" #%%%%%%%%&&&&%%%%%%%%#$",
" #%%%%%%%&&&&&&%%%%%%%#$",
" #%%%%%%&&&&&&&&%%%%%%#$",
" #%%%%%&&&&%%&&&&%%%%%#$",
" #%%%%&&&&%%%%&&&&%%%%#$",
" #%%%&&&&%%%%%%&&&&%%%#$",
" #%%%&&&%%%%%%%%&&&%%%#$",
" #%%%%&%%%%%%%%%%&%%%%#$",
" #%%%%%%%%%%%%%%%%%%%%#$",
" #%%%%%%%%%%%%%%%%%%%%#$",
" #%%%%%%%%%%%%%%%%%%%%#$",
" ######################$",
" $$$$$$$$$$$$$$$$$$$$$$$"};