/* XPM */ 
static const unsigned char * gfile48_xpm[] = {
"48 48 119 2",
"  	c None",
"! 	c black",
"# 	c #99CCFF",
"$ 	c white",
"% 	c #98CCFF",
"& 	c #6567CC",
"' 	c #FEFFFF",
"( 	c #94CEFF",
") 	c #636BCE",
"* 	c #8ED0FF",
"+ 	c #5E71D0",
", 	c #FDFFFF",
"- 	c #85D3FF",
". 	c #587AD3",
"0 	c #97CDFF",
"1 	c #FCFFFF",
"2 	c #79D7FF",
"3 	c #5186D7",
"4 	c #96CDFF",
"5 	c #FAFFFF",
"6 	c #6BDBFF",
"7 	c #4894DB",
"8 	c #95CDFF",
"9 	c #F9FFFF",
": 	c #5BE1FF",
"; 	c #3CA4E1",
"< 	c #F7FFFF",
"= 	c #48E7FF",
"> 	c #30B7E7",
"? 	c #93CEFF",
"@ 	c #F4FFFF",
"A 	c #32EEFF",
"B 	c #22CDEE",
"C 	c #91CFFF",
"D 	c #F2FFFF",
"E 	c #1AF6FF",
"F 	c #11E5F6",
"G 	c #90CFFF",
"H 	c #EFFFFF",
"I 	c #ECFFFF",
"J 	c #0099FF",
"K 	c #8CD0FF",
"L 	c #E9FFFF",
"M 	c #8AD1FF",
"N 	c #E5FFFF",
"O 	c #88D2FF",
"P 	c #E1FFFF",
"Q 	c #86D2FF",
"R 	c #DDFFFF",
"S 	c #83D3FF",
"T 	c #D9FFFF",
"U 	c #80D4FF",
"V 	c #D4FFFF",
"W 	c #7DD5FF",
"X 	c #CFFFFF",
"Y 	c #92CEFF",
"Z 	c #7AD6FF",
"[ 	c #CAFFFF",
"] 	c #77D7FF",
"^ 	c #C5FFFF",
"_ 	c #74D8FF",
"` 	c #BFFFFF",
"a 	c #71D9FF",
"b 	c #B9FFFF",
"c 	c #89D1FF",
"d 	c #6DDBFF",
"e 	c #B3FFFF",
"f 	c #6ADCFF",
"g 	c #ACFFFF",
"h 	c #66DDFF",
"i 	c #A6FFFF",
"j 	c #7FD5FF",
"k 	c #62DEFF",
"l 	c #9FFFFF",
"m 	c #7BD6FF",
"n 	c #5EE0FF",
"o 	c #97FFFF",
"p 	c #59E1FF",
"q 	c #90FFFF",
"r 	c #73D9FF",
"s 	c #55E3FF",
"t 	c #88FFFF",
"u 	c #6EDAFF",
"v 	c #50E4FF",
"w 	c #80FFFF",
"x 	c #69DCFF",
"y 	c #4CE6FF",
"z 	c #78FFFF",
"{ 	c #64DEFF",
"| 	c #46E8FF",
"} 	c #6FFFFF",
"~ 	c #41E9FF",
" !	c #66FFFF",
"!!	c #3CEBFF",
"#!	c #5DFFFF",
"$!	c #53E3FF",
"%!	c #37EDFF",
"&!	c #54FFFF",
"'!	c #31EFFF",
"(!	c #4AFFFF",
")!	c #2BF1FF",
"*!	c #40FFFF",
"+!	c #3FEAFF",
",!	c #26F2FF",
"-!	c #36FFFF",
".!	c #38ECFF",
"0!	c #20F4FF",
"1!	c #2BFFFF",
"2!	c #19F7FF",
"3!	c #21FFFF",
"4!	c #29F1FF",
"5!	c #13F9FF",
"6!	c #16FFFF",
"7!	c #22F4FF",
"8!	c #0DFBFF",
"9!	c #0BFFFF",
":!	c #06FDFF",
";!	c #00FFFF",
"<!	c #11F9FF",
"                                                                                                ",
"        # # # # # # # # # # # # # # # # # # # # # # # # # # # #                                 ",
"        # $ $ $ $ $ $ $ $ $ $ $ $ $ $ $ $ $ $ $ $ $ $ $ $ $ $ % &                               ",
"        % ' ' ' ' ' ' ' ' ' ' ' ' ' ' ' ' ' ' ' ' ' ' ' ' ' ' ( ' )                             ",
"        % ' ' ' ' ' ' ' ' ' ' ' ' ' ' ' ' ' ' ' ' ' ' ' ' ' ' * ' ' +                           ",
"        % , , , , , , , , , , , , , , , , , , , , , , , , , , - , , , .                         ",
"        0 1 1 1 1 1 1 1 1 1 1 1 1 1 1 1 1 1 1 1 1 1 1 1 1 1 1 2 1 1 1 1 3                       ",
"        4 5 5 5 5 5 5 5 5 5 5 5 5 5 5 5 5 5 5 5 5 5 5 5 5 5 5 6 5 5 5 5 5 7                     ",
"        8 9 9 9 9 9 9 9 9 9 9 9 9 9 9 9 9 9 9 9 9 9 9 9 9 9 9 : 9 9 9 9 9 9 ;                   ",
"        ( < < < < < < < < < < < < < < < < < < < < < < < < < < = < < < < < < < >                 ",
"        ? @ @ @ @ @ @ @ @ @ @ @ @ @ @ @ @ @ @ @ @ @ @ @ @ @ @ A @ @ @ @ @ @ @ @ B               ",
"        C D D D D D D D D D D D D D D D D D D D D D D D D D D E D D D D D D D D D F             ",
"        G H H H H H H H H H H H H H H H H H H H H H H H H H H # # # # # # # # # # # #           ",
"        * I I I I I I I I I I I I I I I I I I I I I I I I I I J J J J J J J J J J J J J         ",
"        K L L L L L L L L L L L L L L L L L L L L L L L L L L L L L L L L L L L L L # J         ",
"        M N N N N N N N N N N N N N N N N N N N N N N N N N N N N N N N N N N N N N % J         ",
"        O P P P P P P P P P P P P P P P P P P P P P P P P P P P P P P P P P P P P P % J         ",
"        Q R R R R R R R R R R R R R R R R R R R R R R R R R R R R R R R R R R R R R 0 J         ",
"        S T T T T T T T T T T T T T T T T T T T T T T T T T T T T T T T T T T T T T 8 J         ",
"        U V V V V V V V V V V V V V V V V V V V V V V V V V V V V V V V V V V V V V ( J         ",
"        W X X X X X X X X X X X X X X X X X X X X X X X X X X X X X X X X X X X X X Y J         ",
"        Z [ [ [ [ [ [ [ [ [ [ [ [ [ [ [ [ [ [ [ [ [ [ [ [ [ [ [ [ [ [ [ [ [ [ [ [ [ C J         ",
"        ] ^ ^ ^ ^ ^ ^ ^ ^ ^ ^ ^ ^ ^ ^ ^ ^ ^ ^ ^ ^ ^ ^ ^ ^ ^ ^ ^ ^ ^ ^ ^ ^ ^ ^ ^ ^ ^ * J         ",
"        _ ` ` ` ` ` ` ` ` ` ` ` ` ` ` ` ` ` ` ` ` ` ` ` ` ` ` ` ` ` ` ` ` ` ` ` ` ` K J         ",
"        a b b b b b b b b b b b b b b b b b b b b b b b b b b b b b b b b b b b b b c J         ",
"        d e e e e e e e e e e e e e e e e e e e e e e e e e e e e e e e e e e e e e Q J         ",
"        f g g g g g g g g g g g g g g g g g g g g g g g g g g g g g g g g g g g g g S J         ",
"        h i i i i i i i i i i i i i i i i i i i i i i i i i i i i i i i i i i i i i j J         ",
"        k l l l l l l l l l l l l l l l l l l l l l l l l l l l l l l l l l l l l l m J         ",
"        n o o o o o o o o o o o o o o o o o o o o o o o o o o o o o o o o o o o o o ] J         ",
"        p q q q q q q q q q q q q q q q q q q q q q q q q q q q q q q q q q q q q q r J         ",
"        s t t t t t t t t t t t t t t t t t t t t t t t t t t t t t t t t t t t t t u J         ",
"        v w w w w w w w w w w w w w w w w w w w w w w w w w w w w w w w w w w w w w x J         ",
"        y z z z z z z z z z z z z z z z z z z z z z z z z z z z z z z z z z z z z z { J         ",
"        | } } } } } } } } } } } } } } } } } } } } } } } } } } } } } } } } } } } } } n J         ",
"        ~  ! ! ! ! ! ! ! ! ! ! ! ! ! ! ! ! ! ! ! ! ! ! ! ! ! ! ! ! ! ! ! ! ! ! ! ! !p J         ",
"        !!#!#!#!#!#!#!#!#!#!#!#!#!#!#!#!#!#!#!#!#!#!#!#!#!#!#!#!#!#!#!#!#!#!#!#!#!#!$!J         ",
"        %!&!&!&!&!&!&!&!&!&!&!&!&!&!&!&!&!&!&!&!&!&!&!&!&!&!&!&!&!&!&!&!&!&!&!&!&!&!y J         ",
"        '!(!(!(!(!(!(!(!(!(!(!(!(!(!(!(!(!(!(!(!(!(!(!(!(!(!(!(!(!(!(!(!(!(!(!(!(!(!| J         ",
"        )!*!*!*!*!*!*!*!*!*!*!*!*!*!*!*!*!*!*!*!*!*!*!*!*!*!*!*!*!*!*!*!*!*!*!*!*!*!+!J         ",
"        ,!-!-!-!-!-!-!-!-!-!-!-!-!-!-!-!-!-!-!-!-!-!-!-!-!-!-!-!-!-!-!-!-!-!-!-!-!-!.!J         ",
"        0!1!1!1!1!1!1!1!1!1!1!1!1!1!1!1!1!1!1!1!1!1!1!1!1!1!1!1!1!1!1!1!1!1!1!1!1!1!'!J         ",
"        2!3!3!3!3!3!3!3!3!3!3!3!3!3!3!3!3!3!3!3!3!3!3!3!3!3!3!3!3!3!3!3!3!3!3!3!3!3!4!J         ",
"        5!6!6!6!6!6!6!6!6!6!6!6!6!6!6!6!6!6!6!6!6!6!6!6!6!6!6!6!6!6!6!6!6!6!6!6!6!6!7!J         ",
"        8!9!9!9!9!9!9!9!9!9!9!9!9!9!9!9!9!9!9!9!9!9!9!9!9!9!9!9!9!9!9!9!9!9!9!9!9!9!2!J         ",
"        :!;!;!;!;!;!;!;!;!;!;!;!;!;!;!;!;!;!;!;!;!;!;!;!;!;!;!;!;!;!;!;!;!;!;!;!;!;!<!J         ",
"        # # # # # # # # # # # # # # # # # # # # # # # # # # # # # # # # # # # # # # # J         ",
"        J J J J J J J J J J J J J J J J J J J J J J J J J J J J J J J J J J J J J J J J         "};