/* XPM */ 
static const unsigned char * file2_xpm[] = {
"24 24 39 1",
" 	c None",
"!	c black",
"#	c #C0C0C0",
"$	c #81FFFF",
"%	c #83FFFF",
"&	c #86FFFF",
"'	c #8BFFFF",
"(	c #92FFFF",
")	c #99FFFF",
"*	c #A1FFFF",
"+	c #A9FFFF",
",	c #B3FFFF",
"-	c #BDFFFF",
".	c #C8FFFF",
"0	c #D2FFFF",
"1	c #80FFFF",
"2	c #9AFFFF",
"3	c #B7FFFF",
"4	c #D8FFFF",
"5	c #F4FFFF",
"6	c #81FDFF",
"7	c #85F6FF",
"8	c #83EAFF",
"9	c #70D5FF",
":	c #41B7FF",
";	c #C0C2C3",
"<	c #C3C8CA",
"=	c #C5CFD6",
">	c #C6D6E3",
"?	c #BFD8F0",
"@	c #AFD4FB",
"A	c #808080",
"B	c #DCFFFF",
"C	c #E5FFFF",
"D	c #EEFFFF",
"E	c #F5FFFF",
"F	c #FBFFFF",
"G	c #FEFFFF",
"H	c #CCFFCC",
"  ###############       ",
"  #$%&'()*+,-.0#1#      ",
"  #$%&'()*+,-.0#1&#     ",
"  #$%&'()*+,-.0#1&2#    ",
"  #$%&'()*+,-.0#1&23#   ",
"  #$%&'()*+,-.0#1&234#  ",
"  #$%&'()*+,-.0#1&2345# ",
"  #$%&'()*+,-.0#16789:# ",
"  #$%&'()*+,-.0#;<=>?@# ",
"  #$%&'()*+,-.0#######A ",
"  #$%&'()*+,-.0BCDEFGHA ",
"  #$%&'()*+,-.0BCDEFGHA ",
"  #$%&'()*+,-.0BCDEFGHA ",
"  #$%&'()*+,-.0BCDEFGHA ",
"  #$%&'()*+,-.0BCDEFGHA ",
"  #$%&'()*+,-.0BCDEFGHA ",
"  #$%&'()*+,-.0BCDEFGHA ",
"  #$%&'()*+,-.0BCDEFGHA ",
"  #$%&'()*+,-.0BCDEFGHA ",
"  #$%&'()*+,-.0BCDEFGHA ",
"  #$%&'()*+,-.0BCDEFGHA ",
"  #$%&'()*+,-.0BCDEFGHA ",
"  #HHHHHHHHHHHHHHHHHHHA ",
"   AAAAAAAAAAAAAAAAAAAA "};