/* XPM */ 
static const unsigned char * blue_file48_xpm[] = {
"48 48 12 1",
" 	c None",
"!	c black",
"#	c #00FFFF",
"$	c white",
"%	c #F8F8F8",
"&	c #009B9B",
"'	c #C0C0C0",
"(	c #B4FFFF",
")	c #90FFFF",
"*	c #6CFFFF",
"+	c #48FFFF",
",	c #24FFFF",
"                                                ",
"     ##########################                 ",
"     #$$$$$$$$$$$$$$$$$$$$$$$$##                ",
"     #$$$$$$$$$$$$$$$$$$$$$$$$#$#               ",
"     #$$$$$$$$$$$$$$$$$$$$$$$$#$$#              ",
"     #$$$$$$$$$$$$$$$$$$$$$$$$#$$$#             ",
"     #$$$$$$$$$$$$$$$$$$$$$$$$#$$$$#            ",
"     #$$$$$$$$$$$$$$$$$$$$$$$$#$$$$$#           ",
"     #$$$$$$$$$$$$$$$$$$$$$$$$#$$$$$$#          ",
"     #$$$$$$$$$$$$$$$$$$$$$$$$#$$$$$$$#         ",
"     #%%%%%%%%%%%%%%%%%%%%%%%%#%%%%%%%%#        ",
"     #%%%%%%%%%%%%%%%%%%%%%%%%#%%%%%%%%%#       ",
"     #%%%%%%%%%%%%%%%%%%%%%%%%###########&      ",
"     #%%%%%%%%%%%%%%%%%%%%%%%%&&&&&&&&&&&&'     ",
"     #%%%%%%%%%%%%%%%%%%%%%%%%%%%%%%%%%%%&'     ",
"     #%%%%%%%%%%%%%%%%%%%%%%%%%%%%%%%%%%%&'     ",
"     #%%%%%%%%%%%%%%%%%%%%%%%%%%%%%%%%%%%&'     ",
"     #%%%%%%%%%%%%%%%%%%%%%%%%%%%%%%%%%%%&'     ",
"     #%%%%%%%%%%%%%%%%%%%%%%%%%%%%%%%%%%%&'     ",
"     #(((((((((((((((((((((((((((((((((((&'     ",
"     #(((((((((((((((((((((((((((((((((((&'     ",
"     #(((((((((((((((((((((((((((((((((((&'     ",
"     #(((((((((((((((((((((((((((((((((((&'     ",
"     #(((((((((((((((((((((((((((((((((((&'     ",
"     #(((((((((((((((((((((((((((((((((((&'     ",
"     #(((((((((((((((((((((((((((((((((((&'     ",
"     #(((((((((((((((((((((((((((((((((((&'     ",
"     #(((((((((((((((((((((((((((((((((((&'     ",
"     #)))))))))))))))))))))))))))))))))))&'     ",
"     #)))))))))))))))))))))))))))))))))))&'     ",
"     #)))))))))))))))))))))))))))))))))))&'     ",
"     #)))))))))))))))))))))))))))))))))))&'     ",
"     #)))))))))))))))))))))))))))))))))))&'     ",
"     #***********************************&'     ",
"     #***********************************&'     ",
"     #***********************************&'     ",
"     #***********************************&'     ",
"     #+++++++++++++++++++++++++++++++++++&'     ",
"     #+++++++++++++++++++++++++++++++++++&'     ",
"     #+++++++++++++++++++++++++++++++++++&'     ",
"     #,,,,,,,,,,,,,,,,,,,,,,,,,,,,,,,,,,,&'     ",
"     #,,,,,,,,,,,,,,,,,,,,,,,,,,,,,,,,,,,&'     ",
"     #,,,,,,,,,,,,,,,,,,,,,,,,,,,,,,,,,,,&'     ",
"     #,,,,,,,,,,,,,,,,,,,,,,,,,,,,,,,,,,,&'     ",
"     ####################################&'     ",
"     ####################################&'     ",
"     &&&&&&&&&&&&&&&&&&&&&&&&&&&&&&&&&&&&&'     ",
"     ''''''''''''''''''''''''''''''''''''''     "};