/* XPM */ 
static const unsigned char * gfolder48_xpm[] = {
"48 48 45 1",
" 	c None",
"!	c black",
"#	c #FFDB9D",
"$	c #FFCFB9",
"%	c #FF794B",
"&	c #FFCCB2",
"'	c #FFC29B",
"(	c #FFB276",
")	c #FF9C42",
"*	c #FF8000",
"+	c #CC9900",
",	c #FFCCFF",
"-	c #FFCFB8",
".	c #FFCEB8",
"0	c #FFCEB7",
"1	c #FFCDB5",
"2	c #FFCDB4",
"3	c #FFCBB0",
"4	c #FFCAAD",
"5	c #FFC9AA",
"6	c #FFC8A8",
"7	c #FFC6A5",
"8	c #FFC5A1",
"9	c #FFC39D",
":	c #FFC199",
";	c #FFBF94",
"<	c #FFBD90",
"=	c #FFBB8B",
">	c #FFB985",
"?	c #FFB780",
"@	c #FFB47A",
"A	c #FFB173",
"B	c #FFAF6E",
"C	c #FFAC66",
"D	c #FFA960",
"E	c #FFA558",
"F	c #FFA251",
"G	c #FF9F49",
"H	c #FF9C41",
"I	c #FF9838",
"J	c #FF942F",
"K	c #FF9026",
"L	c #FF8C1D",
"M	c #FF8814",
"N	c #FF8409",
"                                                ",
"                          #################     ",
"                         #$$$$$$$$$$$$$$$$$%    ",
"                         #&&&&&&&&&&&&&&&&&%    ",
"                         #'''''''''''''''''%    ",
"                         #(((((((((((((((((%    ",
"                         #)))))))))))))))))%    ",
"                         #*****************%    ",
"##############################################+ ",
"#$$$$$$$$$$$$$$$$$$$$$$$$$$$$$$$$$$$$$$$$$$$$$+,",
"#---------------------------------------------+,",
"#.............................................+,",
"#000000000000000000000000000000000000000000000+,",
"#111111111111111111111111111111111111111111111+,",
"#222222222222222222222222222222222222222222222+,",
"#&&&&&&&&&&&&&&&&&&&&&&&&&&&&&&&&&&&&&&&&&&&&&+,",
"#333333333333333333333333333333333333333333333+,",
"#444444444444444444444444444444444444444444444+,",
"#555555555555555555555555555555555555555555555+,",
"#666666666666666666666666666666666666666666666+,",
"#777777777777777777777777777777777777777777777+,",
"#888888888888888888888888888888888888888888888+,",
"#999999999999999999999999999999999999999999999+,",
"#:::::::::::::::::::::::::::::::::::::::::::::+,",
"#;;;;;;;;;;;;;;;;;;;;;;;;;;;;;;;;;;;;;;;;;;;;;+,",
"#<<<<<<<<<<<<<<<<<<<<<<<<<<<<<<<<<<<<<<<<<<<<<+,",
"#=============================================+,",
"#>>>>>>>>>>>>>>>>>>>>>>>>>>>>>>>>>>>>>>>>>>>>>+,",
"#?????????????????????????????????????????????+,",
"#@@@@@@@@@@@@@@@@@@@@@@@@@@@@@@@@@@@@@@@@@@@@@+,",
"#AAAAAAAAAAAAAAAAAAAAAAAAAAAAAAAAAAAAAAAAAAAAA+,",
"#BBBBBBBBBBBBBBBBBBBBBBBBBBBBBBBBBBBBBBBBBBBBB+,",
"#CCCCCCCCCCCCCCCCCCCCCCCCCCCCCCCCCCCCCCCCCCCCC+,",
"#DDDDDDDDDDDDDDDDDDDDDDDDDDDDDDDDDDDDDDDDDDDDD+,",
"#EEEEEEEEEEEEEEEEEEEEEEEEEEEEEEEEEEEEEEEEEEEEE+,",
"#FFFFFFFFFFFFFFFFFFFFFFFFFFFFFFFFFFFFFFFFFFFFF+,",
"#GGGGGGGGGGGGGGGGGGGGGGGGGGGGGGGGGGGGGGGGGGGGG+,",
"#HHHHHHHHHHHHHHHHHHHHHHHHHHHHHHHHHHHHHHHHHHHHH+,",
"#IIIIIIIIIIIIIIIIIIIIIIIIIIIIIIIIIIIIIIIIIIIII+,",
"#JJJJJJJJJJJJJJJJJJJJJJJJJJJJJJJJJJJJJJJJJJJJJ+,",
"#KKKKKKKKKKKKKKKKKKKKKKKKKKKKKKKKKKKKKKKKKKKKK+,",
"#LLLLLLLLLLLLLLLLLLLLLLLLLLLLLLLLLLLLLLLLLLLLL+,",
"#MMMMMMMMMMMMMMMMMMMMMMMMMMMMMMMMMMMMMMMMMMMMM+,",
"#NNNNNNNNNNNNNNNNNNNNNNNNNNNNNNNNNNNNNNNNNNNNN+,",
"#*********************************************+,",
"#++++++++++++++++++++++++++++++++++++++++++++++,",
" %%%%%%%%%%%%%%%%%%%%%%%%%%%%%%%%%%%%%%%%%%%%%%,",
"                                               ,"};