/* XPM */ 
static const unsigned char * folder_xpm[] = {
"24 24 45 1",
" 	c None",
"!	c black",
"#	c #FF794B",
"$	c #FF8000",
"%	c #FF8405",
"&	c #FF8E11",
"'	c #FFA027",
"(	c #FFB945",
")	c #FFD96B",
"*	c #FF9933",
"+	c #996600",
",	c #FF8101",
"-	c #FF8102",
".	c #FF8203",
"0	c #FF8305",
"1	c #FF8306",
"2	c #FF8408",
"3	c #FF850A",
"4	c #FF860C",
"5	c #FF870E",
"6	c #FF8911",
"7	c #FF8A14",
"8	c #FF8C17",
"9	c #FF8D1B",
":	c #FF8F1E",
";	c #FF9122",
"<	c #FF9326",
"=	c #FF952A",
">	c #FF972F",
"?	c #FF8303",
"@	c #FF8506",
"A	c #FF8809",
"B	c #FF8B0D",
"C	c #FF9317",
"D	c #FF981D",
"E	c #FF9D23",
"F	c #FFA32A",
"G	c #FFAA33",
"H	c #FFB13B",
"I	c #FFC24F",
"J	c #FFCB5A",
"K	c #FFD465",
"L	c #FFDE71",
"M	c #FFE97E",
"N	c #FFF48C",
"                        ",
"                        ",
"              ##$%&'()* ",
"              ##$%&'()*+",
"              ##$%&'()*+",
"#$,,,-.0123456789:;<=>*+",
"#$,-?@AB&CDEFGH(IJKLMN*+",
"#$,-?@AB&CDEFGH(IJKLMN*+",
"#$,-?@AB&CDEFGH(IJKLMN*+",
"#$,-?@AB&CDEFGH(IJKLMN*+",
"#$,-?@AB&CDEFGH(IJKLMN*+",
"#$,-?@AB&CDEFGH(IJKLMN*+",
"#$,-?@AB&CDEFGH(IJKLMN*+",
"#$,-?@AB&CDEFGH(IJKLMN*+",
"#$,-?@AB&CDEFGH(IJKLMN*+",
"#$,-?@AB&CDEFGH(IJKLMN*+",
"#$,-?@AB&CDEFGH(IJKLMN*+",
"#$,-?@AB&CDEFGH(IJKLMN*+",
"#$,-?@AB&CDEFGH(IJKLMN*+",
"#$,-?@AB&CDEFGH(IJKLMN*+",
"#$,-?@AB&CDEFGH(IJKLMN*+",
"#$,,,-.0123456789:;<=>*+",
"  ++++++++++++++++++++++",
"                        "};