/* XPM */ 
static const unsigned char * open_xpm[] = {
"24 24 53 1",
" 	c None",
"!	c black",
"#	c #FFCC00",
"$	c #FFB995",
"%	c #FF8E55",
"&	c #FF8040",
"'	c #FB5200",
"(	c #FFDDBB",
")	c #0000FF",
"*	c white",
"+	c #FFF0E9",
",	c #3333FF",
"-	c #FFE2D3",
".	c #FFDBBA",
"0	c #FFD4BF",
"1	c #FFD9B9",
"2	c #FFC8AC",
"3	c #FFD6B7",
"4	c #FFBC9B",
"5	c #FFD3B5",
"6	c #FFB28B",
"7	c #FFCEB2",
"8	c #5555FF",
"9	c #FFA87D",
":	c #FFC9AE",
";	c #2020FF",
"<	c #6B6BFF",
"=	c #FFA070",
">	c #FFC2AA",
"?	c #4040FF",
"@	c #8080FF",
"A	c #FF9865",
"B	c #FFBBA6",
"C	c #6060FF",
"D	c #9595FF",
"E	c #FF925B",
"F	c #FFB3A1",
"G	c #ABABFF",
"H	c #FF8C53",
"I	c #FFAB9B",
"J	c #A0A0FF",
"K	c #C0C0FF",
"L	c #FF884C",
"M	c #FFA195",
"N	c #D5D5FF",
"O	c #FF8447",
"P	c #FF978F",
"Q	c #E0E0FF",
"R	c #EBEBFF",
"S	c #FF8243",
"T	c #FF8C87",
"U	c #FF8041",
"V	c #FF8080",
"                        ",
"             ########   ",
"             $$$$$$$$   ",
"             %%%%%%%%   ",
"             &&&&&&&&   ",
"#######################'",
"#(((((((((()*(((((((((+'",
"#((((((((()),*((((((((-'",
"#........)))))*.......0'",
"#1111111)))))))*1111112'",
"#333333)))))))))*333334'",
"#55555)))))))))))*55556'",
"#77777777))))8*77777779'",
"#::::::::;;;;<*:::::::='",
"#>>>>>>>>????@*>>>>>>>A'",
"#BBBBBBBBCCCCD*BBBBBBBE'",
"#FFFFFFFF@@@@G*FFFFFFFH'",
"#IIIIIIIIJJJJK*IIIIIIIL'",
"#MMMMMMMMKKKKN*MMMMMMMO'",
"#PPPPPPPPQQQQR*PPPPPPPS'",
"#TTTTTTTT******TTTTTTTU'",
"#VVVVVVVVVVVVVVVVVVVVV&'",
"''''''''''''''''''''''''",
"                        "};