/* XPM */ 
static const unsigned char * save_xpm[] = {
"24 24 45 1",
" 	c None",
"!	c black",
"#	c #FFCC00",
"$	c #FFB995",
"%	c #FF8E55",
"&	c #FF8040",
"'	c #FB5200",
"(	c #FFF0E9",
")	c #FFE2D3",
"*	c #0000FF",
"+	c #2B2BFF",
",	c #5555FF",
"-	c #8080FF",
".	c #ABABFF",
"0	c #D5D5FF",
"1	c white",
"2	c #FFD4BF",
"3	c #FFC8AC",
"4	c #FFBC9B",
"5	c #FFB28B",
"6	c #FFA87D",
"7	c #FFA070",
"8	c #FF9865",
"9	c #FF925B",
":	c #1515FF",
";	c #4040FF",
"<	c #6B6BFF",
"=	c #9595FF",
">	c #C0C0FF",
"?	c #EBEBFF",
"@	c #FF8C53",
"A	c #1C1CFF",
"B	c #3939FF",
"C	c #7272FF",
"D	c #8E8EFF",
"E	c #C7C7FF",
"F	c #E4E4FF",
"G	c #FF884C",
"H	c #2020FF",
"I	c #6060FF",
"J	c #A0A0FF",
"K	c #E0E0FF",
"L	c #FF8447",
"M	c #FF8243",
"N	c #FF8041",
"                        ",
"             ########   ",
"             $$$$$$$$   ",
"             %%%%%%%%   ",
"             &&&&&&&&   ",
"#######################'",
"#(((((((((((((((((((((('",
"#))))))))*+,-.01)))))))'",
"#22222222*+,-.012222222'",
"#33333333*+,-.013333333'",
"#44444444*+,-.014444444'",
"#55555555*+,-.015555555'",
"#66666666*+,-.016666666'",
"#77777777*+,-.017777777'",
"#88888888*+,-.018888888'",
"#99999*:+;,<-=.>0?19999'",
"#@@@@@@+*AB,CD.EF1@@@@@'",
"#GGGGGGG*H;I-J>K1GGGGGG'",
"#LLLLLLLL*+,-.01LLLLLLL'",
"#MMMMMMMMM*;->1MMMMMMMM'",
"#NNNNNNNNNN*-1NNNNNNNNN'",
"#&&&&&&&&&&&*&&&&&&&&&&'",
"''''''''''''''''''''''''",
"                        "};