/* XPM */ 
static const unsigned char * close_xpm[] = {
"24 24 6 1",
" 	c None",
"!	c black",
"#	c #FF0000",
"$	c #525252",
"%	c white",
"&	c #FF9D6C",
"                        ",
" ######################$",
" ######################$",
" ######################$",
" ######################$",
" #####%%########%%#####$",
" ####%%%%######%%%%####$",
" #####%%%%####%%%%#####$",
" ######%%%%##%%%%######$",
" #######%%%%%%%%#######$",
" ########%%%%%%########$",
" #########%%%%#########$",
" ########%%%%%%########$",
" #######%%%%%%%%#######$",
" ######%%%%#&%%%%######$",
" #####%%%%####%%%%#####$",
" ####%%%%######%%%%####$",
" ####%%%########%%%####$",
" #####%##########%#####$",
" ######################$",
" ######################$",
" ######################$",
" ######################$",
" $$$$$$$$$$$$$$$$$$$$$$$"};