/* XPM */ 
static const unsigned char * upfolder_xpm[] = {
"24 24 89 1",
" 	c None",
"!	c black",
"#	c #00FFFF",
"$	c #00BFEC",
"%	c #0000B5",
"&	c #00EFFA",
"'	c #006FD5",
"(	c #FF794B",
")	c #FF8000",
"*	c #FF8405",
"+	c #FF8E11",
",	c #FFA027",
"-	c #FFB945",
".	c #FFD96B",
"0	c #FF9933",
"1	c #00F8FD",
"2	c #00E3F7",
"3	c #008DDE",
"4	c #004DCB",
"5	c #996600",
"6	c #00FBFE",
"7	c #00DBF5",
"8	c #009BE2",
"9	c #003BC6",
":	c #FF8101",
";	c #00FCFE",
"<	c #00F5FC",
"=	c #00E8F8",
">	c #00D6F3",
"?	c #00A3E4",
"@	c #0082DB",
"A	c #005BCF",
"B	c #0030C3",
"C	c #FF8D1B",
"D	c #FF8F1E",
"E	c #FF9122",
"F	c #FF9326",
"G	c #FF952A",
"H	c #FF972F",
"I	c #FF8102",
"J	c #00FDFE",
"K	c #00D3F2",
"L	c #00A8E6",
"M	c #0028C1",
"N	c #FFCB5A",
"O	c #FFD465",
"P	c #FFDE71",
"Q	c #FFE97E",
"R	c #FFF48C",
"S	c #00FEFF",
"T	c #00FAFE",
"U	c #00F3FC",
"V	c #00EAF9",
"W	c #00DEF5",
"X	c #00D0F1",
"Y	c #00ABE7",
"Z	c #0095E0",
"[	c #007CD9",
"]	c #0061D1",
"^	c #0043C8",
"_	c #0022BF",
"`	c #00F6FC",
"a	c #00E6F8",
"b	c #00CEF1",
"c	c #00AEE7",
"d	c #0086DC",
"e	c #0056CE",
"f	c #001EBE",
"g	c #FF8303",
"h	c #FF8506",
"i	c #FF8809",
"j	c #FFB13B",
"k	c #FFC24F",
"l	c #FF8B0D",
"m	c #FF9317",
"n	c #FF981D",
"o	c #FF9D23",
"p	c #FFA32A",
"q	c #FFAA33",
"r	c #FF8203",
"s	c #FF8305",
"t	c #FF8306",
"u	c #FF8408",
"v	c #FF850A",
"w	c #FF860C",
"x	c #FF870E",
"y	c #FF8911",
"z	c #FF8A14",
"{	c #FF8C17",
"          #             ",
"         #$%            ",
"        #&$'% (()*+,-.0 ",
"       #12$34%(()*+,-.05",
"      #6&7$8'9%()*+,-.05",
"():::#;<=>$?@AB%CDEFGH05",
"():I#J1&2K$L3'4M%NOPQR05",
"():#STUVWX$YZ[]^_%OPQR05",
"()#S6`&a7b$c8d'e9f%PQR05",
"():Ighi#;<=>$?@AB%OPQR05",
"():Ighi#12$34%j-kNOPQR05",
"():Ighi#12$34%j-kNOPQR05",
"():Ighi#12$34%j-kNOPQR05",
"():Ighi#12$34%j-kNOPQR05",
"():Ighi#12$34%j-kNOPQR05",
"():Ighi#12$34%j-kNOPQR05",
"():Ighi#12$34%j-kNOPQR05",
"():Ighi#12$34%j-kNOPQR05",
"():Ighi##<>?A%j-kNOPQR05",
"():Ighil+mnopqj-kNOPQR05",
"():Ighil+mnopqj-kNOPQR05",
"():::Irstuvwxyz{CDEFGH05",
"  5555555555555555555555",
"                        "};