/* XPM */
static char * circle_xpm[] = {
"32 32 3 1",
" 	c white",
".	c red",
"X	c pink",
"                                ",
"             .....              ",
"          ...XXXXX...           ",
"        ..X         X..         ",
"      ..X             X..       ",
"     ..                 ..      ",
"    ..                   ..     ",
"    .                     .     ",
"   .X                     X.    ",
"   .                       .    ",
"  .X                       X.   ",
"  .                         .   ",
"  .                         .   ",
" .X                         X.  ",
" .X                         X.  ",
" .X                         X.  ",
" .X                         X.  ",
" .X                         X.  ",
"  .                         .   ",
"  .                         .   ",
"  .X                       X.   ",
"   .                       .    ",
"   .X                     X.    ",
"    .                     .     ",
"    ..                   ..     ",
"     ..                 ..      ",
"      ..X             X..       ",
"        ..X         X..         ",
"          ...XXXXX...           ",
"             .....              ",
"                                ",
"                                "};
