/* XPM */
static char * full_circle_xpm[] = {
"32 32 5 1",
" 	c white",
".	c yellow",
"X	c black",
"o	c lightblue",
"O	c gray",
"                                ",
"         .........              ",
"       .............X           ",
"     o...............oO         ",
"    o.................oXO       ",
"   o...................oXO      ",
"   .....................XOO     ",
"  .......................XOO    ",
"  .......................XXO    ",
" .........................XOO   ",
" .........................XOO   ",
" .........................XXOO  ",
" .........................XXOO  ",
" .........................XXOO  ",
" .........................XXOO  ",
" .........................XXOO  ",
" .........................XXOO  ",
" .........................XXOO  ",
"  .......................XXOOO  ",
"  .......................XXOOO  ",
"  X.....................XXXOO   ",
"   o...................oXXOOO   ",
"    o.................oXXOOO    ",
"    Xo...............oXXXOOO    ",
"     XX.............XXXXOOO     ",
"       XX.........XXXXOOOO      ",
"        XXXXXXXXXXXXXOOOO       ",
"          OXXXXXXXOOOOO         ",
"            OOOOOOOOO           ",
"                                ",
"                                ",
"                                "};
