/* XPM */
static char * rectangle_xpm[] = {
"32 32 4 1",
" 	c white",
".	c blue",
"X	c gray",
"o	c black",
"                                ",
" ............................   ",
" ............................X  ",
" ............................Xo ",
" ............................Xo ",
" ............................Xo ",
" ............................Xo ",
" ............................Xo ",
" ............................Xo ",
" ............................Xo ",
" ............................Xo ",
" ............................Xo ",
" ............................Xo ",
" ............................Xo ",
" ............................Xo ",
" ............................Xo ",
" ............................Xo ",
" ............................Xo ",
" ............................Xo ",
" ............................Xo ",
" ............................Xo ",
" ............................Xo ",
" ............................Xo ",
" ............................Xo ",
" ............................Xo ",
" ............................Xo ",
" ............................Xo ",
" ............................Xo ",
"  XXXXXXXXXXXXXXXXXXXXXXXXXXXXo ",
"   oooooooooooooooooooooooooooo ",
"                                ",
"                                "};
