/* XPM */
static char * line_xpm[] = {
"32 32 4 1",
" 	c white",
".	c gray",
"X	c red",
"o	c green",
"                                ",
"                                ",
"  .Xo                           ",
"   .Xo                          ",
"    .Xo                         ",
"     .Xo                        ",
"      .Xo                       ",
"       .Xo                      ",
"        .Xo                     ",
"         .Xo                    ",
"          .Xo                   ",
"           .Xo                  ",
"            .Xo                 ",
"             .Xo                ",
"              .Xo               ",
"               .Xo              ",
"                .Xo             ",
"                 .Xo            ",
"                  .Xo           ",
"                   .Xo          ",
"                    .Xo         ",
"                     .Xo        ",
"                      .Xo       ",
"                       .Xo      ",
"                        .Xo     ",
"                         .Xo    ",
"                          .Xo   ",
"                           .X   ",
"                            .   ",
"                                ",
"                                ",
"                                "};
