/* XPM */
static char * rect_xpm[] = {
"32 32 4 1",
" 	c white",
".	c green",
"X	c red",
"o	c gray",
"                                ",
"                                ",
"  ........................XXoo  ",
"  ........................XXoo  ",
"  ........................XXoo  ",
"  ........................XXoo  ",
"  ........................XXoo  ",
"  ........................XXoo  ",
"  ........................XXoo  ",
"  ........................XXoo  ",
"  ........................XXoo  ",
"  ........................XXoo  ",
"  ........................XXoo  ",
"  ........................XXoo  ",
"  ........................XXoo  ",
"  ........................XXoo  ",
"  ........................XXoo  ",
"  ........................XXoo  ",
"  ........................XXoo  ",
"  ........................XXoo  ",
"  ........................XXoo  ",
"  ........................XXoo  ",
"  ........................XXoo  ",
"  ........................XXoo  ",
"  ........................XXoo  ",
"  XXXXXXXXXXXXXXXXXXXXXXXXXXoo  ",
"  XXXXXXXXXXXXXXXXXXXXXXXXXXoo  ",
"  oooooooooooooooooooooooooooo  ",
"  oooooooooooooooooooooooooooo  ",
"                                ",
"                                ",
"                                "};
