/* XPM */
static char * rectangle_xpm[] = {
"32 32 3 1",
" 	c white",
".	c darkgreen",
"X	c green",
"                                ",
"                                ",
" ............................   ",
" .XXXXXXXXXXXXXXXXXXXXXXXXXXXX  ",
" .X                         .X  ",
" .X                         .X  ",
" .X                         .X  ",
" .X                         .X  ",
" .X                         .X  ",
" .X                         .X  ",
" .X                         .X  ",
" .X                         .X  ",
" .X                         .X  ",
" .X                         .X  ",
" .X                         .X  ",
" .X                         .X  ",
" .X                         .X  ",
" .X                         .X  ",
" .X                         .X  ",
" .X                         .X  ",
" .X                         .X  ",
" .X                         .X  ",
" .X                         .X  ",
" .X                         .X  ",
" .X                         .X  ",
" .X                         .X  ",
" .X..........................X  ",
"  XXXXXXXXXXXXXXXXXXXXXXXXXXXX  ",
"                                ",
"                                ",
"                                ",
"                                "};
